<?xml version="1.0" encoding="UTF-8" standalone="no"?>
<!-- Created with Inkscape (http://www.inkscape.org/) -->

<svg
   width="76.005325mm"
   height="12.784535mm"
   viewBox="0 0 76.005325 12.784535"
   version="1.1"
   id="svg1"
   xml:space="preserve"
   xmlns="http://www.w3.org/2000/svg"
   xmlns:svg="http://www.w3.org/2000/svg"><defs
     id="defs1" /><g
     id="layer2"
     style="display:inline"
     transform="translate(-0.97883636,-16.98687)"><path
       style="fill:none;stroke:#000000;stroke-width:0.2;stroke-dasharray:none;paint-order:stroke fill markers"
       d="m 7.9504224,23.863191 c -0.733526,-1.40507 -4.173778,-1.614854 -4.105186,1.327755 -0.02363,2.726506 2.671622,2.269611 2.802265,2.240582 0.527969,-0.23546 1.060486,-0.466371 1.327904,-0.962382 l 1.634334,1.539459 c -1.700517,2.522566 -7.788523,2.474527 -8.514673,-2.247689 -0.36392201,-5.257201 5.419976,-6.176486 8.088587,-3.962454 l 0.490719,0.4594 z"
       id="path1" /><rect
       style="fill:none;stroke:#000000;stroke-width:0.2;stroke-dasharray:none;paint-order:stroke fill markers"
       id="rect3"
       width="2.5626502"
       height="12.300719"
       x="19.089331"
       y="17.207726" /><rect
       style="fill:none;stroke:#000000;stroke-width:0.2;stroke-dasharray:none;paint-order:stroke fill markers"
       id="rect3-4"
       width="2.5626502"
       height="12.300719"
       x="23.243177"
       y="17.199205" /><path
       style="fill:none;stroke:#000000;stroke-width:0.2;stroke-dasharray:none;paint-order:stroke fill markers"
       d="m 27.222959,29.508445 0.02228,-6.841162 c 0.89285,-4.368507 7.684524,-4.446727 8.757574,0 v 6.841162 h -2.65178 v -6.974867 c -0.0715,-1.007999 -2.567065,-1.986133 -3.565427,0 v 6.974867 z"
       id="path4" /><path
       style="fill:none;stroke:#000000;stroke-width:0.2;stroke-dasharray:none;paint-order:stroke fill markers"
       d="m 29.830177,29.397025 2.206106,-1.626726 0.0381,-6.285416 c -0.25488,-0.244946 -1.248849,-0.03165 -1.523186,0.171855 -0.581117,0.500439 -0.632628,0.58411 -0.774763,0.894059 z"
       id="path5" /><ellipse
       style="fill:#000000;stroke:#000000;stroke-width:0.2;stroke-dasharray:none;paint-order:stroke fill markers"
       id="path6"
       cx="31.490339"
       cy="24.550272"
       rx="0.10027761"
       ry="0.12256152" /><path
       style="fill:none;stroke:#000000;stroke-width:0.2;stroke-dasharray:none;paint-order:stroke fill markers"
       d="m 37.362143,17.096305 v 12.41214 h 2.60722 v -0.445678 c 6.39315,3.079259 6.93939,-8.507288 0,-5.949807 v -6.016655 z"
       id="path7" /><ellipse
       style="fill:none;stroke:#000000;stroke-width:0.2;stroke-dasharray:none;paint-order:stroke fill markers"
       id="path8"
       cx="41.172695"
       cy="26.177"
       rx="1.2033314"
       ry="1.4150285" /><path
       style="fill:none;stroke:#000000;stroke-width:0.2;stroke-dasharray:none;paint-order:stroke fill markers"
       d="m 53.539213,17.086871 v 12.41214 h -2.60722 v -0.445678 c -6.39315,3.079259 -6.93939,-8.507288 0,-5.949807 v -6.016655 z"
       id="path7-7" /><ellipse
       style="fill:none;stroke:#000000;stroke-width:0.2;stroke-dasharray:none;paint-order:stroke fill markers"
       id="path8-1"
       cx="-49.728649"
       cy="26.167566"
       rx="1.2033314"
       ry="1.4150285"
       transform="scale(-1,1)" /><ellipse
       style="fill:none;stroke:#000000;stroke-width:0.2;stroke-dasharray:none;paint-order:stroke fill markers"
       id="path9"
       ry="3.4547982"
       rx="3.9227605"
       cy="26.154715"
       cx="14.064305" /><ellipse
       style="fill:none;stroke:#000000;stroke-width:0.2;stroke-dasharray:none;paint-order:stroke fill markers"
       id="path10"
       cx="14.042035"
       cy="26.132431"
       rx="1.231814"
       ry="1.3927445" /><ellipse
       style="fill:none;stroke:#000000;stroke-width:0.2;stroke-dasharray:none;paint-order:stroke fill markers"
       id="path9-7"
       ry="3.4547982"
       rx="3.9227605"
       cy="26.155993"
       cx="58.628773" /><ellipse
       style="fill:none;stroke:#000000;stroke-width:0.2;stroke-dasharray:none;paint-order:stroke fill markers"
       id="path10-6"
       cx="58.606503"
       cy="26.133711"
       rx="1.231814"
       ry="1.3927445" /><ellipse
       style="fill:none;stroke:#000000;stroke-width:0.2;stroke-dasharray:none;paint-order:stroke fill markers"
       id="path9-3"
       ry="3.4547982"
       rx="3.9227605"
       cy="26.179193"
       cx="67.167931" /><ellipse
       style="fill:none;stroke:#000000;stroke-width:0.2;stroke-dasharray:none;paint-order:stroke fill markers"
       id="path10-2"
       cx="67.145668"
       cy="26.15691"
       rx="1.231814"
       ry="1.3927445" /><path
       style="fill:none;stroke:#000000;stroke-width:0.2;stroke-dasharray:none;paint-order:stroke fill markers"
       d="m 72.196823,22.824432 v 6.649498 h 2.59992 l 0.0473,-3.119907 c 0.0746,-1.01809 0.56654,-1.555157 2.04009,-1.403322 l 3e-5,-2.220812 c -0.52211,-0.124974 -1.36611,0.130457 -2.11887,0.740584 l -0.0473,-0.677558 z"
       id="path11" /></g></svg>
